<mxfile host="app.diagrams.net" agent="Mozilla/5.0 (Macintosh; Intel Mac OS X 10_15_7) AppleWebKit/537.36 (KHTML, like Gecko) Chrome/135.0.0.0 Safari/537.36" version="26.2.14">
  <diagram id="C5RBs43oDa-KdzZeNtuy" name="Page-1">
    <mxGraphModel dx="1098" dy="835" grid="1" gridSize="10" guides="1" tooltips="1" connect="1" arrows="1" fold="1" page="1" pageScale="1" pageWidth="827" pageHeight="1169" math="0" shadow="0">
      <root>
        <mxCell id="WIyWlLk6GJQsqaUBKTNV-0" />
        <mxCell id="WIyWlLk6GJQsqaUBKTNV-1" parent="WIyWlLk6GJQsqaUBKTNV-0" />
        <mxCell id="WIyWlLk6GJQsqaUBKTNV-2" value="" style="rounded=0;html=1;jettySize=auto;orthogonalLoop=1;fontSize=11;endArrow=block;endFill=0;endSize=8;strokeWidth=1;shadow=0;labelBackgroundColor=none;edgeStyle=orthogonalEdgeStyle;" parent="WIyWlLk6GJQsqaUBKTNV-1" source="WIyWlLk6GJQsqaUBKTNV-3" edge="1">
          <mxGeometry relative="1" as="geometry">
            <mxPoint x="220" y="170" as="targetPoint" />
          </mxGeometry>
        </mxCell>
        <mxCell id="WIyWlLk6GJQsqaUBKTNV-3" value="$ aboveit-cli init" style="rounded=1;whiteSpace=wrap;html=1;fontSize=12;glass=0;strokeWidth=1;shadow=0;" parent="WIyWlLk6GJQsqaUBKTNV-1" vertex="1">
          <mxGeometry x="160" y="80" width="120" height="40" as="geometry" />
        </mxCell>
        <mxCell id="RsZSiNvv1DTgUE22gZdD-1" value="Check that the user is logged in to necessary services" style="rounded=0;whiteSpace=wrap;html=1;" vertex="1" parent="WIyWlLk6GJQsqaUBKTNV-1">
          <mxGeometry x="160" y="270" width="120" height="60" as="geometry" />
        </mxCell>
        <mxCell id="RsZSiNvv1DTgUE22gZdD-2" value="Init CLIs and check that they are installed" style="rounded=0;whiteSpace=wrap;html=1;" vertex="1" parent="WIyWlLk6GJQsqaUBKTNV-1">
          <mxGeometry x="155" y="170" width="130" height="60" as="geometry" />
        </mxCell>
        <mxCell id="RsZSiNvv1DTgUE22gZdD-4" value="" style="rounded=0;html=1;jettySize=auto;orthogonalLoop=1;fontSize=11;endArrow=block;endFill=0;endSize=8;strokeWidth=1;shadow=0;labelBackgroundColor=none;edgeStyle=orthogonalEdgeStyle;entryX=0.5;entryY=0;entryDx=0;entryDy=0;exitX=0.5;exitY=1;exitDx=0;exitDy=0;" edge="1" parent="WIyWlLk6GJQsqaUBKTNV-1" source="RsZSiNvv1DTgUE22gZdD-2" target="RsZSiNvv1DTgUE22gZdD-1">
          <mxGeometry relative="1" as="geometry">
            <mxPoint x="230" y="130" as="sourcePoint" />
            <mxPoint x="230" y="180" as="targetPoint" />
            <Array as="points">
              <mxPoint x="220" y="250" />
              <mxPoint x="220" y="250" />
            </Array>
          </mxGeometry>
        </mxCell>
        <mxCell id="RsZSiNvv1DTgUE22gZdD-5" value="Collect user input" style="rounded=0;whiteSpace=wrap;html=1;" vertex="1" parent="WIyWlLk6GJQsqaUBKTNV-1">
          <mxGeometry x="160" y="370" width="120" height="60" as="geometry" />
        </mxCell>
        <mxCell id="RsZSiNvv1DTgUE22gZdD-6" value="" style="rounded=0;html=1;jettySize=auto;orthogonalLoop=1;fontSize=11;endArrow=block;endFill=0;endSize=8;strokeWidth=1;shadow=0;labelBackgroundColor=none;edgeStyle=orthogonalEdgeStyle;entryX=0.5;entryY=0;entryDx=0;entryDy=0;exitX=0.5;exitY=1;exitDx=0;exitDy=0;" edge="1" parent="WIyWlLk6GJQsqaUBKTNV-1" source="RsZSiNvv1DTgUE22gZdD-1" target="RsZSiNvv1DTgUE22gZdD-5">
          <mxGeometry relative="1" as="geometry">
            <mxPoint x="230" y="240" as="sourcePoint" />
            <mxPoint x="230" y="280" as="targetPoint" />
            <Array as="points">
              <mxPoint x="220" y="350" />
              <mxPoint x="220" y="350" />
            </Array>
          </mxGeometry>
        </mxCell>
        <mxCell id="RsZSiNvv1DTgUE22gZdD-7" value="Create project locally" style="rounded=0;whiteSpace=wrap;html=1;" vertex="1" parent="WIyWlLk6GJQsqaUBKTNV-1">
          <mxGeometry x="160" y="470" width="120" height="60" as="geometry" />
        </mxCell>
        <mxCell id="RsZSiNvv1DTgUE22gZdD-8" value="" style="rounded=0;html=1;jettySize=auto;orthogonalLoop=1;fontSize=11;endArrow=block;endFill=0;endSize=8;strokeWidth=1;shadow=0;labelBackgroundColor=none;edgeStyle=orthogonalEdgeStyle;entryX=0.5;entryY=0;entryDx=0;entryDy=0;exitX=0.5;exitY=1;exitDx=0;exitDy=0;" edge="1" parent="WIyWlLk6GJQsqaUBKTNV-1" source="RsZSiNvv1DTgUE22gZdD-5" target="RsZSiNvv1DTgUE22gZdD-7">
          <mxGeometry relative="1" as="geometry">
            <mxPoint x="230" y="340" as="sourcePoint" />
            <mxPoint x="230" y="380" as="targetPoint" />
            <Array as="points">
              <mxPoint x="220" y="450" />
              <mxPoint x="220" y="450" />
            </Array>
          </mxGeometry>
        </mxCell>
        <mxCell id="RsZSiNvv1DTgUE22gZdD-9" value="Add and &lt;font style=&quot;color: rgb(255, 0, 0);&quot;&gt;edit files&lt;/font&gt; and directories in local project" style="rounded=0;whiteSpace=wrap;html=1;" vertex="1" parent="WIyWlLk6GJQsqaUBKTNV-1">
          <mxGeometry x="160" y="570" width="120" height="60" as="geometry" />
        </mxCell>
        <mxCell id="RsZSiNvv1DTgUE22gZdD-11" value="" style="rounded=0;html=1;jettySize=auto;orthogonalLoop=1;fontSize=11;endArrow=block;endFill=0;endSize=8;strokeWidth=1;shadow=0;labelBackgroundColor=none;edgeStyle=orthogonalEdgeStyle;entryX=0.5;entryY=0;entryDx=0;entryDy=0;exitX=0.5;exitY=1;exitDx=0;exitDy=0;" edge="1" parent="WIyWlLk6GJQsqaUBKTNV-1" source="RsZSiNvv1DTgUE22gZdD-7" target="RsZSiNvv1DTgUE22gZdD-9">
          <mxGeometry relative="1" as="geometry">
            <mxPoint x="230" y="130" as="sourcePoint" />
            <mxPoint x="230" y="180" as="targetPoint" />
          </mxGeometry>
        </mxCell>
        <mxCell id="RsZSiNvv1DTgUE22gZdD-13" value="projectName, create inside organization?, necessary cloud variables..." style="shape=hexagon;perimeter=hexagonPerimeter2;whiteSpace=wrap;html=1;fixedSize=1;" vertex="1" parent="WIyWlLk6GJQsqaUBKTNV-1">
          <mxGeometry x="360" y="355" width="140" height="90" as="geometry" />
        </mxCell>
        <mxCell id="RsZSiNvv1DTgUE22gZdD-14" value="" style="endArrow=none;html=1;rounded=0;exitX=1;exitY=0.5;exitDx=0;exitDy=0;entryX=0;entryY=0.5;entryDx=0;entryDy=0;" edge="1" parent="WIyWlLk6GJQsqaUBKTNV-1" source="RsZSiNvv1DTgUE22gZdD-5" target="RsZSiNvv1DTgUE22gZdD-13">
          <mxGeometry width="50" height="50" relative="1" as="geometry">
            <mxPoint x="390" y="460" as="sourcePoint" />
            <mxPoint x="440" y="410" as="targetPoint" />
          </mxGeometry>
        </mxCell>
        <mxCell id="RsZSiNvv1DTgUE22gZdD-17" value="Includes cloning cli-repo&lt;div&gt;to copy terraform files, making directory for github actions and generating JSON-files&lt;/div&gt;" style="shape=hexagon;perimeter=hexagonPerimeter2;whiteSpace=wrap;html=1;fixedSize=1;" vertex="1" parent="WIyWlLk6GJQsqaUBKTNV-1">
          <mxGeometry x="350" y="550" width="160" height="100" as="geometry" />
        </mxCell>
        <mxCell id="RsZSiNvv1DTgUE22gZdD-18" value="" style="endArrow=none;html=1;rounded=0;exitX=1;exitY=0.5;exitDx=0;exitDy=0;" edge="1" parent="WIyWlLk6GJQsqaUBKTNV-1" source="RsZSiNvv1DTgUE22gZdD-9" target="RsZSiNvv1DTgUE22gZdD-17">
          <mxGeometry width="50" height="50" relative="1" as="geometry">
            <mxPoint x="390" y="460" as="sourcePoint" />
            <mxPoint x="440" y="410" as="targetPoint" />
          </mxGeometry>
        </mxCell>
        <mxCell id="RsZSiNvv1DTgUE22gZdD-19" value="From template. Choose an option or specify your own template" style="shape=hexagon;perimeter=hexagonPerimeter2;whiteSpace=wrap;html=1;fixedSize=1;" vertex="1" parent="WIyWlLk6GJQsqaUBKTNV-1">
          <mxGeometry x="370" y="460" width="120" height="80" as="geometry" />
        </mxCell>
        <mxCell id="RsZSiNvv1DTgUE22gZdD-20" value="" style="endArrow=none;html=1;rounded=0;exitX=1;exitY=0.5;exitDx=0;exitDy=0;entryX=0;entryY=0.5;entryDx=0;entryDy=0;" edge="1" parent="WIyWlLk6GJQsqaUBKTNV-1" source="RsZSiNvv1DTgUE22gZdD-7" target="RsZSiNvv1DTgUE22gZdD-19">
          <mxGeometry width="50" height="50" relative="1" as="geometry">
            <mxPoint x="390" y="460" as="sourcePoint" />
            <mxPoint x="359" y="500" as="targetPoint" />
          </mxGeometry>
        </mxCell>
        <mxCell id="RsZSiNvv1DTgUE22gZdD-21" value="Create git-repo and push local project" style="rounded=0;whiteSpace=wrap;html=1;" vertex="1" parent="WIyWlLk6GJQsqaUBKTNV-1">
          <mxGeometry x="160" y="670" width="120" height="60" as="geometry" />
        </mxCell>
        <mxCell id="RsZSiNvv1DTgUE22gZdD-23" value="" style="rounded=0;html=1;jettySize=auto;orthogonalLoop=1;fontSize=11;endArrow=block;endFill=0;endSize=8;strokeWidth=1;shadow=0;labelBackgroundColor=none;edgeStyle=orthogonalEdgeStyle;entryX=0.5;entryY=0;entryDx=0;entryDy=0;exitX=0.5;exitY=1;exitDx=0;exitDy=0;" edge="1" parent="WIyWlLk6GJQsqaUBKTNV-1" source="RsZSiNvv1DTgUE22gZdD-9" target="RsZSiNvv1DTgUE22gZdD-21">
          <mxGeometry relative="1" as="geometry">
            <mxPoint x="230" y="440" as="sourcePoint" />
            <mxPoint x="230" y="480" as="targetPoint" />
            <Array as="points">
              <mxPoint x="220" y="650" />
              <mxPoint x="220" y="650" />
            </Array>
          </mxGeometry>
        </mxCell>
        <mxCell id="RsZSiNvv1DTgUE22gZdD-24" value="Generate cloud infrastructure, connect repo and csp through WIF, and push CI/CD pipelines" style="rounded=0;whiteSpace=wrap;html=1;" vertex="1" parent="WIyWlLk6GJQsqaUBKTNV-1">
          <mxGeometry x="160" y="770" width="120" height="90" as="geometry" />
        </mxCell>
        <mxCell id="RsZSiNvv1DTgUE22gZdD-25" value="" style="rounded=0;html=1;jettySize=auto;orthogonalLoop=1;fontSize=11;endArrow=block;endFill=0;endSize=8;strokeWidth=1;shadow=0;labelBackgroundColor=none;edgeStyle=orthogonalEdgeStyle;entryX=0.5;entryY=0;entryDx=0;entryDy=0;exitX=0.5;exitY=1;exitDx=0;exitDy=0;" edge="1" parent="WIyWlLk6GJQsqaUBKTNV-1" source="RsZSiNvv1DTgUE22gZdD-21" target="RsZSiNvv1DTgUE22gZdD-24">
          <mxGeometry relative="1" as="geometry">
            <mxPoint x="230" y="640" as="sourcePoint" />
            <mxPoint x="230" y="680" as="targetPoint" />
            <Array as="points">
              <mxPoint x="220" y="750" />
              <mxPoint x="220" y="750" />
            </Array>
          </mxGeometry>
        </mxCell>
        <mxCell id="RsZSiNvv1DTgUE22gZdD-26" value="All of this is done through &lt;font style=&quot;color: rgb(0, 153, 0);&quot;&gt;Terraform&lt;/font&gt;" style="shape=hexagon;perimeter=hexagonPerimeter2;whiteSpace=wrap;html=1;fixedSize=1;" vertex="1" parent="WIyWlLk6GJQsqaUBKTNV-1">
          <mxGeometry x="370" y="775" width="120" height="80" as="geometry" />
        </mxCell>
        <mxCell id="RsZSiNvv1DTgUE22gZdD-27" value="" style="endArrow=none;html=1;rounded=0;exitX=1;exitY=0.5;exitDx=0;exitDy=0;entryX=0;entryY=0.5;entryDx=0;entryDy=0;" edge="1" parent="WIyWlLk6GJQsqaUBKTNV-1" source="RsZSiNvv1DTgUE22gZdD-24" target="RsZSiNvv1DTgUE22gZdD-26">
          <mxGeometry width="50" height="50" relative="1" as="geometry">
            <mxPoint x="390" y="740" as="sourcePoint" />
            <mxPoint x="440" y="690" as="targetPoint" />
          </mxGeometry>
        </mxCell>
        <mxCell id="RsZSiNvv1DTgUE22gZdD-30" value="" style="rounded=0;html=1;jettySize=auto;orthogonalLoop=1;fontSize=11;endArrow=block;endFill=0;endSize=8;strokeWidth=1;shadow=0;labelBackgroundColor=none;edgeStyle=orthogonalEdgeStyle;entryX=0.5;entryY=0;entryDx=0;entryDy=0;exitX=0.5;exitY=1;exitDx=0;exitDy=0;" edge="1" parent="WIyWlLk6GJQsqaUBKTNV-1" source="RsZSiNvv1DTgUE22gZdD-24">
          <mxGeometry relative="1" as="geometry">
            <mxPoint x="230" y="740" as="sourcePoint" />
            <mxPoint x="220" y="910" as="targetPoint" />
            <Array as="points">
              <mxPoint x="220" y="880" />
              <mxPoint x="220" y="880" />
            </Array>
          </mxGeometry>
        </mxCell>
        <mxCell id="RsZSiNvv1DTgUE22gZdD-31" value="CLI done" style="ellipse;whiteSpace=wrap;html=1;aspect=fixed;" vertex="1" parent="WIyWlLk6GJQsqaUBKTNV-1">
          <mxGeometry x="180" y="1030" width="80" height="80" as="geometry" />
        </mxCell>
        <mxCell id="RsZSiNvv1DTgUE22gZdD-32" value="Pipelines run automatically on push and will build and deploy the code in the cloud" style="rounded=0;whiteSpace=wrap;html=1;" vertex="1" parent="WIyWlLk6GJQsqaUBKTNV-1">
          <mxGeometry x="160" y="910" width="120" height="80" as="geometry" />
        </mxCell>
        <mxCell id="RsZSiNvv1DTgUE22gZdD-33" value="" style="rounded=0;html=1;jettySize=auto;orthogonalLoop=1;fontSize=11;endArrow=block;endFill=0;endSize=8;strokeWidth=1;shadow=0;labelBackgroundColor=none;edgeStyle=orthogonalEdgeStyle;entryX=0.5;entryY=0;entryDx=0;entryDy=0;exitX=0.5;exitY=1;exitDx=0;exitDy=0;" edge="1" parent="WIyWlLk6GJQsqaUBKTNV-1" source="RsZSiNvv1DTgUE22gZdD-32" target="RsZSiNvv1DTgUE22gZdD-31">
          <mxGeometry relative="1" as="geometry">
            <mxPoint x="230" y="870" as="sourcePoint" />
            <mxPoint x="230" y="920" as="targetPoint" />
            <Array as="points">
              <mxPoint x="220" y="1010" />
              <mxPoint x="220" y="1010" />
            </Array>
          </mxGeometry>
        </mxCell>
      </root>
    </mxGraphModel>
  </diagram>
</mxfile>
